<?xml version="1.0" standalone="no"?>
<svg viewBox="0 0 200 200" xmlns="http://www.w3.org/2000/svg">
  <path fill="#FF0066" d="M16,-27.6C16.8,-27.2,10.9,-15,19.9,-8.5C28.9,-1.9,52.9,-1,57.6,2.7C62.4,6.4,47.8,12.8,40.3,22C32.9,31.3,32.4,43.3,26.9,42.4C21.3,41.5,10.7,27.7,0.5,26.8C-9.6,25.9,-19.3,38,-24.7,38.8C-30.1,39.6,-31.3,29.2,-29.8,20.8C-28.3,12.5,-24.3,6.2,-19.7,2.6C-15.1,-1,-10,-1.9,-7.3,-3.1C-4.7,-4.3,-4.4,-5.7,-3.6,-6.1C-2.7,-6.5,-1.4,-5.9,3.1,-11.3C7.6,-16.6,15.1,-28,16,-27.6Z" transform="translate(100 100)" />
</svg>
