<?xml version="1.0" standalone="no"?>
<svg viewBox="0 0 200 200" xmlns="http://www.w3.org/2000/svg">
  <path fill="#FF0066" d="M20.7,-43.3C25.2,-33.3,26,-24.4,32.2,-17.4C38.4,-10.3,50.1,-5.2,57.8,4.5C65.6,14.1,69.5,28.3,59.3,28.3C49,28.4,24.6,14.4,12.4,14.9C0.2,15.4,0.1,30.5,-0.8,31.8C-1.7,33.2,-3.3,20.9,-9.4,16.8C-15.4,12.7,-25.8,16.8,-36.2,15.4C-46.7,13.9,-57.3,7,-54.4,1.7C-51.5,-3.6,-35.1,-7.2,-31.3,-20.2C-27.5,-33.3,-36.3,-55.8,-33.2,-66.5C-30.1,-77.3,-15.1,-76.4,-3.5,-70.4C8.1,-64.4,16.3,-53.3,20.7,-43.3Z" transform="translate(100 100)" />
</svg>
