<?xml version="1.0" standalone="no"?>
<svg viewBox="0 0 200 200" xmlns="http://www.w3.org/2000/svg">
  <path fill="#FF0066" d="M13.1,-22.8C21.2,-18,34.8,-23,41.9,-20.8C49,-18.6,49.6,-9.3,52.4,1.6C55.3,12.6,60.3,25.2,54.7,29.8C49,34.5,32.6,31.2,21.7,29.6C10.8,27.9,5.4,27.9,0.1,27.7C-5.2,27.6,-10.4,27.3,-21.2,28.9C-32.1,30.5,-48.5,34,-51.1,29.5C-53.7,25,-42.4,12.5,-42.8,-0.3C-43.3,-13,-55.5,-26.1,-50.7,-26.6C-45.8,-27.2,-23.9,-15.3,-12.6,-18.2C-1.3,-21.1,-0.6,-38.8,0.9,-40.4C2.5,-42,5,-27.5,13.1,-22.8Z" transform="translate(100 100)" />
</svg>
