<?xml version="1.0" standalone="no"?>
<svg viewBox="0 0 200 200" xmlns="http://www.w3.org/2000/svg">
  <path fill="#FF0066" d="M36.1,-62.6C48.5,-55.5,61.2,-49.1,63.6,-38.8C65.9,-28.5,57.9,-14.2,55.8,-1.2C53.7,11.9,57.7,23.7,56.7,36.4C55.7,49.1,49.8,62.6,39.6,57.9C29.3,53.2,14.6,30.2,5,21.6C-4.7,12.9,-9.3,18.6,-20.6,23.9C-31.9,29.2,-49.8,34.1,-56.1,30.1C-62.4,26,-57.2,13,-56.8,0.2C-56.4,-12.6,-60.8,-25.1,-52.6,-25.8C-44.3,-26.5,-23.3,-15.3,-12.5,-23.3C-1.6,-31.3,-0.8,-58.5,5.6,-68.1C11.9,-77.7,23.8,-69.8,36.1,-62.6Z" transform="translate(100 100)" />
</svg>
