<?xml version="1.0" standalone="no"?>
<svg viewBox="0 0 200 200" xmlns="http://www.w3.org/2000/svg">
  <path fill="#FF0066" d="M18.3,-39.6C21.5,-29.8,20.2,-20.4,20.3,-13.9C20.3,-7.3,21.6,-3.7,28.2,3.8C34.9,11.3,46.9,22.7,50.1,34.8C53.3,47,47.7,60,37.9,64.2C28.1,68.4,14,63.9,3.3,58.1C-7.4,52.4,-14.8,45.4,-19.5,38.2C-24.2,31,-26.3,23.7,-28.2,17.3C-30.1,10.9,-31.9,5.4,-34,-1.2C-36,-7.8,-38.3,-15.6,-40.9,-29.8C-43.4,-44,-46.3,-64.6,-39.5,-72.3C-32.8,-80,-16.4,-74.9,-4.4,-67.2C7.6,-59.6,15.1,-49.4,18.3,-39.6Z" transform="translate(100 100)" />
</svg>
