<?xml version="1.0" standalone="no"?>
<svg viewBox="0 0 200 200" xmlns="http://www.w3.org/2000/svg">
  <path fill="#FF0066" d="M20.9,-38.1C29.8,-30.9,41.8,-31,54.9,-25.9C67.9,-20.7,82,-10.4,81.8,-0.1C81.6,10.1,67.2,20.3,56.3,29.2C45.5,38.1,38.2,45.8,29.4,47.3C20.6,48.8,10.3,44,-1.7,46.9C-13.7,49.8,-27.3,60.4,-34.5,58C-41.7,55.6,-42.5,40.3,-47.4,28.5C-52.3,16.7,-61.3,8.3,-59.1,1.3C-56.9,-5.8,-43.6,-11.6,-39.2,-24.3C-34.8,-37.1,-39.4,-56.7,-34.4,-66.1C-29.4,-75.5,-14.7,-74.8,-4.4,-67.2C5.9,-59.6,11.9,-45.2,20.9,-38.1Z" transform="translate(100 100)" />
</svg>
