<?xml version="1.0" standalone="no"?>
<svg viewBox="0 0 200 200" xmlns="http://www.w3.org/2000/svg">
  <path fill="#FF0066" d="M19.8,-36.4C22.5,-32.8,19.2,-21,16.9,-13.5C14.5,-6.1,13.3,-3,13.4,0.1C13.6,3.2,15.2,6.5,15.4,10.2C15.6,14,14.3,18.3,11.5,30.1C8.7,41.9,4.3,61.4,0.7,60.1C-2.9,58.9,-5.8,37.1,-10.9,26.5C-16,16,-23.3,16.8,-23.4,14.3C-23.5,11.7,-16.5,5.9,-25.1,-5C-33.7,-15.8,-57.9,-31.6,-60.6,-39C-63.3,-46.3,-44.4,-45.2,-30.7,-42.4C-17,-39.6,-8.5,-35.2,0.1,-35.3C8.6,-35.4,17.2,-40,19.8,-36.4Z" transform="translate(100 100)" />
</svg>
