<?xml version="1.0" standalone="no"?>
<svg viewBox="0 0 200 200" xmlns="http://www.w3.org/2000/svg">
  <path fill="#FF0066" d="M7.6,-13.9C13.1,-9.9,23.2,-14.5,28.3,-13.7C33.5,-12.8,33.7,-6.4,34.2,0.3C34.8,7,35.7,14.1,30.6,15.1C25.5,16,14.4,10.9,8.3,21.2C2.2,31.4,1.1,57,-5.2,66.1C-11.6,75.1,-23.1,67.6,-30.2,57.9C-37.4,48.3,-40.1,36.5,-50.2,26.5C-60.4,16.5,-78,8.2,-77.1,0.5C-76.2,-7.2,-56.9,-14.4,-48.9,-28.3C-41,-42.1,-44.4,-62.5,-38.2,-66C-31.9,-69.6,-16,-56.3,-7.5,-43.4C1,-30.4,2,-17.8,7.6,-13.9Z" transform="translate(100 100)" />
</svg>
