<?xml version="1.0" standalone="no"?>
<svg viewBox="0 0 200 200" xmlns="http://www.w3.org/2000/svg">
  <path fill="#FF0066" d="M20.1,-38.7C27.3,-30.6,35.4,-27.8,42.8,-22.3C50.3,-16.7,57.1,-8.4,54.8,-1.3C52.5,5.7,41.1,11.4,33.1,16.1C25.2,20.8,20.8,24.6,15.8,37.1C10.9,49.7,5.4,71.1,-4.5,78.9C-14.5,86.8,-29,81,-32.8,67.8C-36.6,54.6,-29.8,33.9,-27,21.4C-24.3,8.8,-25.6,4.4,-27.2,-0.9C-28.8,-6.2,-30.6,-12.4,-28.5,-16.6C-26.4,-20.8,-20.4,-23,-15.1,-32.1C-9.7,-41.3,-4.8,-57.4,0.8,-58.8C6.4,-60.1,12.8,-46.7,20.1,-38.7Z" transform="translate(100 100)" />
</svg>
