<?xml version="1.0" standalone="no"?>
<svg viewBox="0 0 200 200" xmlns="http://www.w3.org/2000/svg">
  <path fill="#FF0066" d="M42.6,-57.3C56.9,-65.5,71.4,-57.5,78.8,-45.3C86.1,-33.1,86.3,-16.5,73.3,-7.5C60.2,1.4,33.9,2.9,21.3,6.1C8.7,9.3,9.9,14.3,8.7,14.9C7.4,15.5,3.7,11.6,0.1,11.5C-3.6,11.4,-7.2,15,-14.2,17.8C-21.3,20.6,-31.7,22.5,-30.7,19.4C-29.6,16.2,-17,8.1,-14.8,1.2C-12.6,-5.6,-20.9,-11.3,-25.1,-19.8C-29.3,-28.3,-29.4,-39.7,-24.6,-37C-19.7,-34.2,-9.8,-17.2,2.1,-20.9C14.1,-24.6,28.3,-49,42.6,-57.3Z" transform="translate(100 100)" />
</svg>
