<?xml version="1.0" standalone="no"?>
<svg viewBox="0 0 200 200" xmlns="http://www.w3.org/2000/svg">
  <path fill="#FF0066" d="M33.9,-54.9C39.8,-55.2,37.7,-37.9,33.8,-25.8C29.8,-13.7,23.9,-6.9,25.6,1C27.2,8.8,36.4,17.6,36,22.1C35.6,26.6,25.6,26.9,18,36.9C10.4,46.9,5.2,66.7,1.4,64.2C-2.4,61.8,-4.7,37,-18.2,30.4C-31.7,23.7,-56.4,35.3,-64.6,33.2C-72.8,31.2,-64.6,15.6,-60.4,2.5C-56.1,-10.7,-55.7,-21.3,-53.4,-33.7C-51.2,-46,-47,-60,-37.7,-57.7C-28.5,-55.5,-14.2,-36.9,-0.1,-36.7C14,-36.4,27.9,-54.5,33.9,-54.9Z" transform="translate(100 100)" />
</svg>
