<?xml version="1.0" standalone="no"?>
<svg viewBox="0 0 200 200" xmlns="http://www.w3.org/2000/svg">
  <path fill="#FF0066" d="M33.1,-48.4C46.7,-42.8,64.1,-40,73.6,-30.3C83.1,-20.7,84.7,-4.1,80.9,10.5C77.1,25.2,67.8,37.9,57.3,49.2C46.8,60.5,35.2,70.4,21.1,76.8C7,83.2,-9.6,86.2,-25,82.7C-40.3,79.3,-54.5,69.4,-65,56.7C-75.5,43.9,-82.4,28.4,-83.7,12.6C-85,-3.1,-80.9,-19.1,-72.2,-30.8C-63.5,-42.5,-50.2,-50,-37.4,-56C-24.6,-62.1,-12.3,-66.6,-1.3,-64.6C9.8,-62.6,19.5,-54.1,33.1,-48.4Z" transform="translate(100 100)" />
</svg>
