<?xml version="1.0" standalone="no"?>
<svg viewBox="0 0 200 200" xmlns="http://www.w3.org/2000/svg">
  <path fill="#FF0066" d="M30.5,-44.4C44.2,-45,63,-46.1,73.4,-38.8C83.7,-31.5,85.6,-15.8,79.1,-3.8C72.6,8.2,57.7,16.5,46.6,22.4C35.4,28.3,27.9,31.9,20.8,42.4C13.7,52.9,6.8,70.3,-1,72C-8.8,73.7,-17.7,59.8,-31.7,53.3C-45.7,46.8,-64.9,47.7,-71.3,40C-77.6,32.4,-71.1,16.2,-67.7,2C-64.2,-12.2,-63.9,-24.4,-57,-31.1C-50.1,-37.9,-36.7,-39,-26.1,-40.2C-15.5,-41.4,-7.7,-42.6,0.3,-43.2C8.4,-43.8,16.9,-43.8,30.5,-44.4Z" transform="translate(100 100)" />
</svg>
