<?xml version="1.0" standalone="no"?>
<svg viewBox="0 0 200 200" xmlns="http://www.w3.org/2000/svg">
  <path fill="#FF0066" d="M34.8,-56C47.1,-46.1,60.7,-40,70.9,-29C81.1,-18.1,87.9,-2.2,84.5,11.2C81,24.6,67.3,35.5,56,48.4C44.6,61.2,35.6,76,24,77.3C12.4,78.6,-1.8,66.5,-14.5,58.6C-27.2,50.6,-38.4,46.8,-49.2,39.7C-60,32.6,-70.4,22.1,-73,9.9C-75.5,-2.2,-70.4,-16,-65.6,-31.4C-60.8,-46.8,-56.4,-63.8,-45.5,-74.4C-34.6,-84.9,-17.3,-89.1,-3.1,-84.3C11.2,-79.5,22.4,-65.9,34.8,-56Z" transform="translate(100 100)" />
</svg>
