<?xml version="1.0" standalone="no"?>
<svg viewBox="0 0 200 200" xmlns="http://www.w3.org/2000/svg">
  <path fill="#FF0066" d="M32.1,-47C45.6,-47.9,63.2,-47.3,65.3,-39.2C67.4,-31.1,54.1,-15.6,47.2,-4C40.2,7.6,39.8,15.1,37.5,22.9C35.1,30.6,30.9,38.5,24.4,42.4C17.8,46.3,8.9,46.2,-3,51.3C-14.8,56.4,-29.7,66.8,-42.2,66.3C-54.8,65.9,-65.1,54.7,-69.5,41.9C-73.9,29,-72.5,14.5,-70.2,1.4C-67.8,-11.8,-64.5,-23.6,-59.7,-35.7C-54.8,-47.8,-48.4,-60.2,-38.1,-61.2C-27.9,-62.2,-14,-51.9,-2.3,-47.9C9.3,-43.9,18.7,-46.2,32.1,-47Z" transform="translate(100 100)" />
</svg>
