<?xml version="1.0" standalone="no"?>
<svg viewBox="0 0 200 200" xmlns="http://www.w3.org/2000/svg">
  <path fill="#FF0066" d="M40.3,-72C48.6,-65.1,48.9,-46.8,56.8,-32.9C64.7,-19,80,-9.5,80.6,0.3C81.2,10.2,67,20.3,58.7,33.5C50.4,46.6,48,62.8,39.2,72.4C30.4,82.1,15.2,85.3,2,81.8C-11.2,78.3,-22.3,68.2,-34.3,60.3C-46.2,52.5,-59,46.9,-68.2,37.3C-77.5,27.6,-83.2,13.8,-82.5,0.4C-81.8,-13,-74.7,-26,-65.8,-36.2C-56.9,-46.5,-46.2,-53.9,-34.9,-59C-23.6,-64.1,-11.8,-66.9,2.1,-70.5C16.1,-74.2,32.1,-78.8,40.3,-72Z" transform="translate(100 100)" />
</svg>
