<?xml version="1.0" standalone="no"?>
<svg viewBox="0 0 200 200" xmlns="http://www.w3.org/2000/svg">
  <path fill="#FF0066" d="M33.8,-61.4C43.4,-53.1,50.5,-43.2,51.5,-32.7C52.4,-22.2,47.2,-11.1,49.6,1.3C51.9,13.8,61.8,27.6,60.8,38C59.7,48.3,47.9,55.3,35.9,63C24,70.6,12,78.9,-0.1,79.1C-12.3,79.3,-24.5,71.5,-38.6,65.1C-52.7,58.7,-68.6,53.8,-76.6,43.2C-84.6,32.5,-84.6,16.3,-76.5,4.7C-68.3,-6.9,-52,-13.7,-45,-26.1C-38,-38.4,-40.4,-56.2,-34.4,-66.7C-28.5,-77.1,-14.2,-80.2,-1.1,-78.3C12.1,-76.5,24.2,-69.7,33.8,-61.4Z" transform="translate(100 100)" />
</svg>
