<?xml version="1.0" standalone="no"?>
<svg viewBox="0 0 200 200" xmlns="http://www.w3.org/2000/svg">
  <path fill="#FF0066" d="M35,-56.8C49,-52.4,66.5,-50.5,76.3,-41.4C86,-32.4,88,-16.2,86.4,-1C84.7,14.3,79.4,28.5,71,39.9C62.5,51.3,51,59.7,38.6,66.8C26.3,73.8,13.1,79.3,-1.5,81.9C-16.1,84.5,-32.2,84.1,-43.3,76.4C-54.5,68.6,-60.6,53.6,-64.7,39.7C-68.8,25.7,-70.8,12.9,-70.9,0C-71,-12.9,-69.1,-25.9,-64.4,-38.8C-59.8,-51.7,-52.2,-64.6,-41,-70.5C-29.8,-76.5,-14.9,-75.4,-2.2,-71.6C10.5,-67.8,20.9,-61.1,35,-56.8Z" transform="translate(100 100)" />
</svg>
