<?xml version="1.0" standalone="no"?>
<svg viewBox="0 0 200 200" xmlns="http://www.w3.org/2000/svg">
  <path fill="#FF0066" d="M28.4,-54.1C36.7,-44.4,43.2,-36.6,47.4,-27.8C51.6,-19.1,53.6,-9.6,56.9,1.9C60.2,13.4,64.8,26.8,63.8,41C62.7,55.1,56,70.2,44.4,77.5C32.8,84.9,16.4,84.6,2,81.2C-12.4,77.7,-24.8,71.1,-36.4,63.7C-47.9,56.3,-58.6,48.2,-64.1,37.4C-69.6,26.7,-69.9,13.3,-66.2,2.1C-62.6,-9.1,-55,-18.2,-50.5,-30.7C-46,-43.2,-44.6,-59,-36.7,-68.9C-28.8,-78.8,-14.4,-82.7,-2.2,-79C10.1,-75.2,20.1,-63.7,28.4,-54.1Z" transform="translate(100 100)" />
</svg>
